<?xml version="1.0" standalone="no"?>
<!DOCTYPE svg PUBLIC "-//W3C//DTD SVG 20010904//EN"
 "http://www.w3.org/TR/2001/REC-SVG-20010904/DTD/svg10.dtd">
<svg version="1.0" xmlns="http://www.w3.org/2000/svg"
 width="360.000000pt" height="390.000000pt" viewBox="0 0 360.000000 390.000000"
 preserveAspectRatio="xMidYMid meet">
<metadata>
Created by potrace 1.16, written by Peter Selinger 2001-2019
</metadata>
<g transform="translate(0.000000,390.000000) scale(0.100000,-0.100000)"
fill="#000000" stroke="none">
<path d="M1658 3765 c-2 -2 -55 -11 -118 -20 -123 -18 -175 -37 -300 -110
-114 -67 -176 -141 -283 -338 -28 -50 -29 -56 -23 -154 3 -56 11 -124 17 -150
6 -26 15 -68 19 -93 5 -25 14 -67 19 -95 6 -27 13 -65 16 -83 l6 -34 -39 7
c-34 5 -42 3 -56 -17 -9 -12 -16 -31 -16 -42 0 -17 2 -18 18 -4 37 33 92 29
79 -5 -4 -12 -2 -14 10 -10 11 4 14 2 9 -5 -5 -8 -2 -10 8 -6 12 5 16 -1 18
-22 3 -71 6 -84 16 -97 14 -16 13 -105 0 -113 -5 -4 -23 6 -39 22 -24 23 -29
25 -29 10 0 -20 13 -34 51 -59 23 -15 27 -26 32 -91 3 -40 10 -82 16 -92 10
-19 48 -146 58 -196 5 -26 3 -28 -29 -28 -55 0 -116 -76 -203 -255 -47 -94
-49 -104 -48 -175 1 -41 7 -97 13 -125 22 -99 125 -408 138 -412 16 -7 78 36
150 102 36 33 62 49 76 47 12 -2 35 9 51 23 17 14 38 25 47 25 9 0 18 5 20 10
2 6 20 -2 41 -17 45 -32 43 -39 -6 -18 -21 8 -37 13 -37 11 0 -2 29 -69 64
-148 56 -127 95 -243 85 -253 -8 -7 -211 -26 -380 -35 -153 -8 -228 -16 -339
-35 -14 -3 -59 -7 -100 -10 -41 -3 -120 -10 -175 -15 -55 -5 -133 -12 -173
-15 -73 -6 -316 -50 -333 -61 -12 -7 -11 -102 1 -106 6 -2 13 -26 16 -55 4
-28 9 -56 13 -61 4 -7 29 -5 76 7 95 25 403 72 600 91 61 6 126 15 145 20 19
5 78 12 130 15 145 9 479 34 531 41 l45 5 12 -38 c6 -21 14 -70 18 -109 l6
-71 -88 -11 c-49 -7 -123 -14 -164 -17 -121 -9 -192 -15 -235 -20 -22 -2 -80
-7 -128 -10 -48 -3 -98 -10 -110 -14 -12 -5 -54 -11 -94 -15 -39 -4 -82 -9
-95 -11 -13 -2 -72 -11 -133 -19 -238 -34 -368 -57 -396 -71 -15 -8 -39 -15
-53 -15 -20 0 -25 6 -31 39 -5 31 -14 44 -41 60 l-34 20 0 -119 0 -120 1800 0
1800 0 0 171 c0 136 -3 169 -12 162 -20 -16 -146 -63 -167 -63 -14 0 -21 -9
-26 -32 -16 -82 -25 -98 -55 -98 -16 0 -41 5 -57 11 -39 15 -240 46 -348 54
-49 3 -130 12 -180 20 -131 19 -256 34 -375 45 -58 5 -148 16 -200 24 -52 8
-112 17 -132 20 -21 3 -119 6 -218 7 -99 1 -182 5 -184 8 -6 9 20 130 37 176
l14 40 79 0 c233 -1 461 -19 779 -60 61 -8 135 -17 165 -19 338 -24 407 -33
583 -73 60 -14 111 -23 113 -20 3 3 11 36 17 73 l12 68 77 35 78 36 0 127 0
127 -36 -21 c-45 -27 -59 -48 -80 -128 -10 -36 -21 -69 -25 -73 -8 -11 -141 9
-229 33 -49 14 -118 20 -280 25 -178 5 -557 41 -630 60 -8 2 -100 6 -205 10
-104 3 -205 8 -222 12 -21 3 -33 1 -33 -6 0 -6 -7 -11 -15 -11 -10 0 -3 19 25
62 38 58 90 196 90 238 0 20 46 80 61 80 5 0 9 -7 9 -15 0 -19 45 -20 122 -1
56 13 57 13 55 -8 -2 -19 2 -21 39 -18 40 3 41 2 58 -41 24 -65 95 -123 113
-94 10 16 78 184 108 267 40 109 55 189 55 302 0 129 -12 163 -96 263 -33 39
-67 82 -77 97 -9 15 -35 38 -57 50 -44 25 -47 35 -25 77 8 16 23 62 35 102 11
41 27 79 35 85 8 6 15 20 15 31 0 15 7 21 24 21 26 -1 52 21 80 65 17 28 17
30 0 49 -13 13 -18 33 -16 66 2 62 -16 111 -45 119 -18 4 -22 10 -17 25 4 14
2 18 -5 14 -7 -4 -11 0 -10 11 0 10 25 38 54 63 61 52 67 65 25 57 -28 -6 -30
-5 -30 26 0 18 6 57 14 87 7 30 17 73 21 95 4 22 15 66 26 97 28 83 25 193 -6
291 -29 92 -68 168 -97 188 -11 8 -40 29 -64 47 -23 17 -45 32 -48 32 -10 0
-73 46 -107 78 -83 77 -197 109 -416 116 -73 2 -133 2 -135 1z m425 -502 c9
-9 17 -22 17 -30 0 -8 5 -11 10 -8 14 9 13 -18 -1 -32 -9 -9 -7 -10 10 -6 12
3 21 1 21 -6 0 -6 -5 -11 -11 -11 -6 0 -9 -6 -6 -12 2 -7 0 -23 -4 -35 -5 -13
-4 -25 2 -29 6 -4 4 -15 -6 -30 -14 -22 -14 -24 2 -25 14 -1 14 -2 3 -6 -23
-7 -52 -74 -38 -90 13 -16 13 -72 1 -83 -4 -5 -46 -11 -93 -15 -112 -9 -139
-13 -150 -20 -18 -11 -10 -42 15 -55 24 -13 24 -14 8 -32 -13 -14 -14 -21 -5
-27 8 -5 4 -15 -13 -33 -14 -15 -25 -36 -25 -48 0 -11 -7 -23 -15 -26 -28 -11
-15 -25 20 -22 19 1 35 5 35 9 0 8 46 27 80 32 14 2 6 5 -19 6 l-45 1 34 25
c19 14 39 25 44 25 18 0 35 -47 23 -59 -8 -8 2 -11 35 -11 26 0 50 5 53 10 8
13 58 13 72 -1 14 -14 73 -2 73 15 0 21 -52 74 -83 86 -16 5 -40 10 -55 9
l-27 -1 25 -8 c19 -6 9 -8 -38 -9 -35 -1 -61 3 -58 8 3 5 -5 12 -19 15 -14 4
-25 11 -25 16 0 6 1 10 3 10 1 0 29 9 61 21 103 36 163 28 223 -30 12 -12 28
-21 35 -21 9 0 9 -3 -2 -10 -12 -8 -9 -10 11 -10 21 0 28 -7 39 -40 7 -22 16
-40 19 -40 3 0 6 -16 7 -35 0 -19 -3 -35 -7 -35 -9 0 -22 -40 -19 -62 1 -10
-4 -18 -9 -18 -6 0 -11 4 -11 9 0 5 -7 11 -15 14 -11 5 -13 0 -8 -26 7 -39 12
-45 22 -28 11 17 19 -5 27 -73 4 -40 0 -68 -16 -112 -12 -33 -26 -75 -32 -94
-6 -19 -15 -39 -22 -43 -8 -6 -8 -10 2 -14 21 -8 13 -21 -10 -15 -14 3 -19 2
-14 -7 4 -6 0 -19 -10 -28 -12 -13 -13 -18 -4 -21 7 -3 17 3 22 12 15 27 34
18 36 -19 2 -20 -2 -35 -8 -35 -6 0 -9 -4 -5 -9 3 -5 -3 -17 -12 -27 -10 -10
-18 -22 -18 -28 0 -6 -13 -12 -28 -14 -25 -3 -28 -1 -22 17 7 24 -13 29 -33 9
-8 -8 -12 -8 -12 -1 0 15 27 36 39 29 6 -4 15 2 20 13 15 27 14 34 -3 28 -8
-3 -16 -1 -18 5 -2 6 -10 -2 -16 -18 -7 -16 -28 -37 -48 -47 -19 -9 -33 -13
-29 -7 3 6 0 7 -9 4 -9 -3 -14 -10 -11 -14 3 -4 -1 -7 -8 -6 -6 0 -12 -3 -12
-9 0 -5 9 -9 20 -7 20 2 20 2 -1 -12 -11 -8 -37 -17 -57 -21 -20 -4 -37 -12
-37 -17 0 -6 13 -7 31 -3 39 9 32 -10 -7 -19 -32 -8 -58 -32 -49 -46 3 -5 2
-10 -3 -10 -6 0 -13 -11 -16 -24 -3 -14 -19 -33 -36 -42 -16 -10 -27 -21 -25
-25 8 -12 -43 -20 -127 -18 -108 2 -136 15 -129 62 0 4 -4 7 -10 7 -13 0 -39
25 -39 39 0 6 -11 13 -25 17 -16 4 -24 12 -23 23 2 10 -3 15 -13 13 -15 -2
-16 3 -7 37 13 51 51 70 101 50 21 -9 66 -13 137 -11 104 2 227 21 201 30 -11
4 -11 6 0 14 10 7 6 8 -11 3 -14 -4 -81 -11 -149 -16 -68 -5 -132 -11 -143
-15 -10 -3 -25 0 -33 6 -12 10 -12 15 2 36 8 13 12 24 8 24 -3 0 0 7 9 15 8 8
24 15 35 15 11 0 23 5 27 11 5 9 90 9 202 -1 2 0 2 -7 0 -16 -4 -21 47 -31 68
-13 8 6 25 8 40 5 l26 -7 -21 30 c-24 34 -137 76 -158 59 -12 -10 -188 -12
-203 -3 -5 3 -27 -3 -49 -15 -22 -11 -49 -20 -60 -20 -11 0 -25 -9 -31 -20 -6
-11 -15 -18 -19 -15 -5 2 -14 -2 -21 -11 -7 -8 -18 -13 -24 -11 -7 3 -12 -4
-12 -14 0 -12 5 -18 13 -15 7 3 13 1 13 -4 0 -4 -16 -14 -36 -20 -42 -14 -68
2 -72 45 -3 41 -11 48 -38 31 -27 -19 -34 -20 -34 -6 0 6 8 10 18 10 16 1 16
1 -1 14 -14 11 -15 15 -5 19 9 4 9 6 -2 6 -15 1 -22 12 -55 79 -26 54 -35 127
-40 303 -5 182 4 221 55 246 14 7 24 18 22 24 -1 6 2 7 8 4 17 -10 57 3 64 21
5 13 1 15 -21 10 l-28 -7 24 17 c14 10 40 17 63 16 40 -2 213 -55 234 -72 6
-6 14 -7 16 -3 3 4 3 3 2 -4 -2 -7 1 -15 6 -18 6 -4 10 -14 10 -24 0 -26 -29
-22 -36 5 -8 32 -47 42 -138 36 -59 -4 -77 -2 -72 7 5 8 1 10 -16 7 -12 -3
-36 -8 -52 -10 -36 -6 -34 -4 -41 -51 -6 -38 -5 -41 25 -52 25 -9 32 -9 36 2
4 10 20 13 57 10 29 -2 82 -4 120 -5 63 0 68 -2 77 -26 6 -14 14 -23 18 -20 5
3 7 -8 4 -23 -6 -42 25 -36 49 10 21 41 25 84 9 94 -5 3 -10 14 -10 24 0 10
-7 24 -15 31 -9 7 -15 29 -15 51 0 44 -14 55 -78 63 -68 8 -166 28 -186 38
-13 7 -17 18 -14 39 3 17 1 32 -4 35 -5 3 -6 10 -2 15 3 5 1 15 -4 22 -6 7
-11 46 -11 87 -2 94 0 110 11 104 4 -3 8 -1 8 5 0 6 14 18 32 27 18 9 38 23
45 30 11 11 21 10 56 -3 41 -15 252 -23 287 -11 40 14 57 22 76 40 31 27 68
36 159 36 59 0 85 -4 98 -15z m-773 -1630 c0 -7 7 -10 15 -7 8 4 27 -7 46 -25
17 -17 35 -31 40 -31 5 0 12 -7 15 -15 4 -8 9 -13 13 -10 4 2 25 -8 46 -22 21
-14 72 -42 114 -62 69 -33 84 -36 162 -36 50 0 92 5 100 12 8 6 28 13 45 16
42 7 103 39 141 76 18 17 37 31 42 31 5 0 11 7 15 15 3 8 10 15 16 15 6 0 8
-5 4 -12 -4 -7 -3 -8 4 -4 6 4 9 13 5 21 -3 8 -4 15 -2 15 2 1 20 3 40 6 31 4
37 2 47 -21 9 -20 8 -37 -4 -83 -9 -31 -17 -73 -19 -93 -3 -44 -25 -86 -60
-119 -15 -14 -31 -35 -36 -48 -5 -13 -13 -21 -19 -17 -5 3 -21 -12 -36 -35
-15 -22 -32 -40 -38 -40 -6 0 -29 -19 -50 -42 -22 -22 -34 -38 -28 -34 7 4 12
2 12 -3 0 -6 -6 -11 -12 -11 -8 0 -9 -3 -3 -8 6 -4 11 -25 12 -46 2 -32 -5
-52 -38 -103 -23 -34 -46 -60 -51 -57 -5 3 -9 0 -7 -7 1 -8 1 -21 0 -29 -3
-31 -19 12 -19 51 -1 58 -38 150 -75 184 -18 17 -39 40 -47 53 -9 13 -40 31
-75 42 -77 26 -97 35 -170 72 -116 60 -174 118 -166 167 1 7 -2 10 -8 6 -7 -4
-11 9 -11 37 0 24 -5 60 -11 82 -8 28 -7 51 2 90 7 28 12 54 11 59 -1 4 7 2
18 -5 11 -7 20 -18 20 -25z"/>
</g>
</svg>
